<?xml version="1.0" standalone="no"?>
<!DOCTYPE svg PUBLIC "-//W3C//DTD SVG 20010904//EN"
 "http://www.w3.org/TR/2001/REC-SVG-20010904/DTD/svg10.dtd">
<svg version="1.0" xmlns="http://www.w3.org/2000/svg"
 width="295.000000pt" height="295.000000pt" viewBox="0 0 295.000000 295.000000"
 preserveAspectRatio="xMidYMid meet">
<metadata>
Created by potrace 1.14, written by Peter Selinger 2001-2017
</metadata>
<g transform="translate(0.000000,295.000000) scale(0.100000,-0.100000)"
fill="#000000" stroke="none">
<path d="M2035 2550 c-99 -10 -160 -27 -240 -69 -94 -48 -187 -144 -243 -250
-24 -44 -45 -81 -47 -81 -1 0 -22 33 -46 73 -89 149 -245 272 -395 311 -133
34 -331 12 -447 -51 -213 -116 -331 -382 -287 -650 34 -213 173 -475 395 -743
130 -158 749 -780 776 -780 8 0 115 94 289 255 198 182 463 460 546 570 271
362 394 698 340 930 -29 122 -79 209 -177 308 -72 72 -101 94 -170 126 -109
51 -176 63 -294 51z"/>
</g>
</svg>
